<?xml version="1.0" encoding="UTF-8"?>
<svg xmlns="http://www.w3.org/2000/svg" xmlns:xlink="http://www.w3.org/1999/xlink" width="24px" height="24px" viewBox="0 0 24 24" version="1.1">
<g id="surface1">
<path fill="currentColor" d="M 22.339844 14.148438 C 21.234375 13.492188 18.480469 14.359375 17.230469 14.492188 C 13.992188 14.835938 10.179688 14.800781 6.933594 14.492188 C 5.636719 14.367188 3.21875 13.582031 2.011719 14.09375 C 1.027344 14.515625 1.234375 15.800781 1.402344 16.625 C 1.851562 18.867188 2.4375 21.203125 4.453125 22.53125 C 5.785156 23.410156 8.207031 24.488281 9.792969 23.695312 C 10.613281 23.285156 11.246094 22.011719 12.273438 22.105469 C 13.222656 22.191406 13.761719 23.292969 14.5625 23.695312 C 15.738281 24.285156 17.457031 23.761719 18.566406 23.257812 C 21.265625 22.027344 22.078125 19.9375 22.695312 17.199219 C 22.910156 16.261719 23.394531 14.769531 22.339844 14.148438 Z M 7.992188 20.445312 C 5.898438 20.550781 3.761719 17.425781 6.652344 17.335938 C 7.515625 17.304688 8.785156 17.273438 9.464844 17.898438 C 10.613281 18.957031 9.125 20.390625 7.992188 20.445312 Z M 16.617188 20.445312 C 15.5 20.40625 13.933594 19.035156 15.007812 17.90625 C 15.621094 17.261719 16.949219 17.339844 17.765625 17.332031 C 20.691406 17.316406 18.660156 20.511719 16.617188 20.445312 Z M 16.617188 20.445312 "/>
<path fill="currentColor" d="M 19.519531 8.980469 C 19.335938 6.710938 18.609375 4.296875 18.015625 2.097656 C 17.792969 1.261719 17.429688 0.285156 16.46875 0.0976562 C 14.910156 -0.207031 13.390625 1.445312 11.699219 1.316406 C 10.199219 1.199219 8.191406 -0.714844 6.816406 0.503906 C 5.050781 2.066406 5.441406 6.105469 4.59375 8.207031 C 4.132812 9.347656 -0.785156 9.621094 0.203125 11.25 C 0.789062 12.21875 2.675781 12.449219 3.691406 12.648438 C 7.085938 13.316406 10.546875 13.183594 13.988281 13.183594 C 16.882812 13.183594 20.019531 13.050781 22.761719 12.019531 C 26.3125 10.6875 20.867188 9.089844 19.519531 8.980469 Z M 19.519531 8.980469 "/>
</g>
</svg>
