<svg version="1.2" xmlns="http://www.w3.org/2000/svg" viewBox="0 0 132 132" width="132" height="132"><style>.a{fill:#fff}</style><path class="a" d="m78.5 52.2c-3.7-2.2-12.9 0.8-17 1.2-10.8 1.2-23.4 1.1-34.2 0-4.3-0.4-12.4-3.1-16.4-1.3-3.3 1.4-2.6 5.9-2 8.7 1.5 7.8 3.4 15.9 10.1 20.5 4.4 3.1 12.5 6.8 17.8 4 2.7-1.4 4.8-5.8 8.2-5.5 3.2 0.3 5 4.2 7.6 5.5 3.9 2.1 9.6 0.3 13.3-1.5 9-4.2 11.7-11.5 13.7-21 0.7-3.2 2.4-8.4-1.1-10.6zm-47.7 21.9c-7 0.3-14.1-10.5-4.5-10.8 2.9-0.1 7.1-0.2 9.4 1.9 3.8 3.7-1.1 8.7-4.9 8.9zm28.6 0c-3.7-0.1-8.9-4.9-5.3-8.8 2-2.3 6.4-2 9.2-2 9.7-0.1 2.9 11-3.9 10.8z"/><path class="a" d="m69.1 34.3c-0.6-7.8-3-16.2-5-23.8-0.8-2.9-2-6.3-5.2-7-5.1-1-10.2 4.7-15.8 4.2-5-0.4-11.6-7-16.2-2.8-5.9 5.4-4.6 19.5-7.4 26.7-1.5 4-17.9 4.9-14.6 10.6 2 3.4 8.2 4.2 11.6 4.8 11.3 2.4 22.8 1.9 34.2 1.9 9.6 0 20-0.5 29.2-4 11.8-4.7-6.3-10.2-10.8-10.6z"/><path fill-rule="evenodd" class="a" d="m80.9 8.2h20.4v98.8h-20.4z"/><path fill-rule="evenodd" class="a" d="m66.9 79l36.1 36.1-11.8 11.8-36.1-36.1z"/><path fill-rule="evenodd" class="a" d="m115.5 79l-36.1 36.1 11.8 11.8 36.1-36.1z"/></svg>