<?xml version="1.0" encoding="utf-8"?>
<!-- Generator: Adobe Illustrator 16.0.0, SVG Export Plug-In . SVG Version: 6.00 Build 0)  -->
<!DOCTYPE svg PUBLIC "-//W3C//DTD SVG 1.1//EN" "http://www.w3.org/Graphics/SVG/1.1/DTD/svg11.dtd">
<svg version="1.1" id="Layer_1" xmlns="http://www.w3.org/2000/svg" xmlns:xlink="http://www.w3.org/1999/xlink" x="0px" y="0px"
	 width="132px" height="132px" viewBox="0 0 132 132" enable-background="new 0 0 132 132" xml:space="preserve">
<path display="none" fill="none" d="M0,0v132h132V0H0z"/>
<g>
	<path fill="#51585c" d="M122.872,77.806c-6.086-3.605-21.22,1.165-28.099,1.899c-17.806,1.903-38.782,1.699-56.648-0.005
		c-7.119-0.676-20.42-4.999-27.05-2.179c-5.424,2.307-4.284,9.377-3.368,13.923c2.485,12.329,5.696,25.17,16.781,32.477
		c7.323,4.826,20.652,10.759,29.374,6.393c4.509-2.256,7.998-9.253,13.638-8.736c5.22,0.477,8.185,6.532,12.589,8.736
		c6.48,3.244,15.926,0.375,22.029-2.402c14.84-6.753,19.313-18.25,22.711-33.313C125.996,89.435,128.672,81.243,122.872,77.806z
		 M43.958,112.453c-11.506,0.578-23.27-16.603-7.377-17.113c4.755-0.154,11.747-0.339,15.473,3.097
		C58.366,104.26,50.194,112.139,43.958,112.453z M91.386,112.442c-6.143-0.203-14.761-7.752-8.85-13.953
		c3.38-3.544,10.682-3.125,15.174-3.153C113.803,95.231,102.638,112.811,91.386,112.442z"/>
	<path fill="#51585c" d="M107.362,49.392c-1.017-12.475-5.021-25.757-8.271-37.847c-1.238-4.598-3.218-9.979-8.518-11.01
		C82.01-1.131,73.648,7.958,64.351,7.24C56.091,6.603,45.06-3.934,37.49,2.77c-9.71,8.598-7.573,30.805-12.229,42.358
		c-2.534,6.29-29.569,7.792-24.154,16.744c3.23,5.338,13.617,6.605,19.186,7.7c18.676,3.671,37.705,2.948,56.647,2.948
		c15.918,0,33.167-0.733,48.256-6.406C144.713,58.776,114.773,49.999,107.362,49.392z"/>
</g>
</svg>
