<?xml version="1.0" encoding="utf-8"?>
<!-- Generator: Adobe Illustrator 16.0.0, SVG Export Plug-In . SVG Version: 6.00 Build 0)  -->
<!DOCTYPE svg PUBLIC "-//W3C//DTD SVG 1.0//EN" "http://www.w3.org/TR/2001/REC-SVG-20010904/DTD/svg10.dtd">
<svg version="1.0" id="Layer_1" xmlns="http://www.w3.org/2000/svg" xmlns:xlink="http://www.w3.org/1999/xlink" x="0px" y="0px"
	 width="132px" height="132px" viewBox="0 0 132 132" enable-background="new 0 0 132 132" xml:space="preserve">
<path display="none" fill="none" d="M0,0v132h132V0H0z"/>
<g>
	<path fill="#51585C" d="M122.872,77.807c-6.086-3.605-21.22,1.164-28.099,1.898c-17.807,1.902-38.782,1.699-56.648-0.005
		c-7.119-0.677-20.42-4.999-27.05-2.179c-5.424,2.307-4.284,9.377-3.368,13.922c2.485,12.33,5.696,25.17,16.781,32.478
		c7.323,4.826,20.652,10.759,29.374,6.394c4.509-2.256,7.998-9.254,13.638-8.736c5.221,0.477,8.186,6.531,12.589,8.736
		c6.479,3.244,15.927,0.375,22.029-2.402c14.84-6.753,19.313-18.25,22.711-33.313C125.996,89.436,128.672,81.243,122.872,77.807z
		 M120.571,103.996c-1.255,7.214-8.228,14.155-14.548,17.488c-5.931,3.127-13.197,8.248-20.317,6.062
		c-7.741-2.376-13.631-10.021-18.958-15.798c-0.105-0.114-0.197-0.229-0.298-0.344c-0.532,0.854-1.121,1.685-1.791,2.479
		c-3.574,4.231-7.09,9.345-12.531,11.282c-5.964,2.123-13.11,1.103-18.669-1.794c-3.529-1.839-6.979-4.15-10.148-6.554
		c-2.178-1.651-3.554-4.101-5.314-6.146c-3.571-4.149-5.462-11.449-4.839-16.894c0.67-5.853,3.224-10.026,9.002-11.958
		c3.309-1.105,7.249,0.102,10.578,0.455c3.347,0.354,6.753,0.724,10.124,0.67c7.332-0.118,13.733,0.067,20.884,1.817
		c0.771,0.188,1.402,0.503,1.913,0.901c0.584-0.139,1.19-0.189,1.786-0.144c1.621-1.086,3.613-1.063,5.235-0.353
		c1.363-0.52,2.814-0.858,4.428-1.033c4.178-0.454,7.953-1.113,12.063-1.955c4.093-0.839,8.268-0.889,12.403-1.376
		c4.285-0.506,7.628,0.501,10.907,3.317C118.603,89.376,122.01,95.73,120.571,103.996z"/>
	<path fill="#51585C" d="M23.157,93.777c-0.174,3.528,0.577,8.026,2.854,10.745c3.296,3.937,6.42,7.048,11.087,9.48
		c3.252,1.694,8.764,3.692,12.276,1.485c6.977-4.385,10.862-12.362,11.375-20.321c0.019-0.284,0.062-0.552,0.116-0.812
		c-9.352-2.231-18.627-0.908-28.129-2.081C30.244,91.967,23.358,89.702,23.157,93.777z M52.054,98.438
		c6.312,5.822-1.86,13.701-8.096,14.016c-11.506,0.578-23.27-16.604-7.377-17.113C41.336,95.186,48.328,95.001,52.054,98.438z"/>
	<path fill="#51585C" d="M101.311,90.877c-2.545,0.403-5.097,0.27-7.64,0.595c-2.381,0.305-4.592,1.308-6.951,1.709
		c-1.985,0.338-11.997,0.031-11.913,2.751c0.109,3.576,1.426,7.087,1.86,10.651c0.045,0.367,0.03,0.715-0.018,1.049
		c3.028,3.424,6.274,7.79,10.041,9.634c4.557,2.23,10.447-2.148,14.286-4.416c3.091-1.826,9.025-6.186,9.693-10.022
		C111.664,97.11,107.885,89.834,101.311,90.877z M91.387,112.441c-6.144-0.203-14.762-7.752-8.851-13.953
		c3.38-3.543,10.682-3.125,15.174-3.152C113.803,95.23,102.639,112.811,91.387,112.441z"/>
	<path fill="#51585C" d="M107.361,49.392c-1.016-12.475-5.021-25.757-8.271-37.847c-1.237-4.598-3.218-9.979-8.518-11.01
		C82.01-1.131,73.648,7.958,64.351,7.24C56.091,6.603,45.06-3.934,37.49,2.77c-9.71,8.598-7.573,30.805-12.229,42.358
		c-2.534,6.29-29.569,7.792-24.154,16.744c3.23,5.338,13.617,6.604,19.186,7.7c18.676,3.671,37.705,2.947,56.646,2.947
		c15.918,0,33.168-0.732,48.256-6.406C144.713,58.776,114.773,49.999,107.361,49.392z M107.662,67.656
		c-8.974,3.139-18.831,1.81-28.122,3.045c-2.437,0.324-4.82,0.206-7.198-0.062c-2.834-0.007-5.689-0.457-8.508-0.722
		c-4.132-0.389-8.263-0.488-12.41-0.555c-4.728-0.077-9.387-0.837-14.117-0.857c-1.862-0.008-3.703-0.07-5.516-0.302
		c-0.491,0.173-1.003,0.31-1.541,0.38c-1.752,0.23-3.543-0.398-5.212-0.875c-1.875-0.536-3.736-1.119-5.617-1.637
		c-0.26-0.072-0.499-0.162-0.729-0.26c-3.909,0.281-7.566-0.221-10.176-4.122c-1.956-2.924,0.577-7.987,4.317-7.523
		c4.208,0.522,6.725,0.417,10.264-2.215c1.18-0.878,2.567-1.92,3.828-3.072c1.188-2.818,2.361-5.646,3.377-8.516
		c-0.263-1.21-0.069-2.546,0.464-3.804c-0.436,1.028-0.005-0.308,0.024-0.462c0.082-0.427,0.154-0.853,0.215-1.283
		c0.101-0.703,0.176-1.429,0.373-2.113c0.125-0.432,0.279-0.854,0.446-1.269c0.019-1.427,0.326-2.829,1.108-4.175
		c1.811-3.12,2.962-6.755,4.466-10.052c0.391-0.857-0.142-2.611-0.101-3.57c0.054-1.279,0.351-2.581,0.689-3.808
		c1.639-5.946,7.846-6.618,12.759-4.648c1.894,0.759,2.912,2.27,3.229,3.893c6.385,2.01,14.116,4.189,20.511,1.495
		c4.483-1.889,11.549-9.817,15.832-2.506c0.85,1.451,1.035,3.218,0.874,4.851c-0.184,1.843,0.47,2.884,0.963,4.594
		c1.08,3.745,1.724,7.044,3.329,10.597c1.448,3.205,2.038,6.76,2.839,10.213c2.346,3.872,4.177,7.386,5.499,11.94
		c0.175,0.602,0.211,1.195,0.146,1.766c5.164-0.818,11.479-1.276,13.596,4.227C119.984,62.548,112.318,66.027,107.662,67.656z"/>
</g>
</svg>
