<?xml version="1.0" encoding="utf-8"?>
<!-- Generator: Adobe Illustrator 16.0.0, SVG Export Plug-In . SVG Version: 6.00 Build 0)  -->
<!DOCTYPE svg PUBLIC "-//W3C//DTD SVG 1.0//EN" "http://www.w3.org/TR/2001/REC-SVG-20010904/DTD/svg10.dtd">
<svg version="1.0" id="Layer_1" xmlns="http://www.w3.org/2000/svg" xmlns:xlink="http://www.w3.org/1999/xlink" x="0px" y="0px"
	 width="24px" height="24px" viewBox="0 0 24 24" enable-background="new 0 0 24 24" xml:space="preserve">
<g id="surface1">
	<path fill="currentColor" d="M18.854,16.313c-0.728,0.098-1.458,0.105-2.188,0.188c-0.116,0.013-0.204-0.018-0.278-0.063
		c-1.964,0.346-4.62,1.153-2.68,3.463c0.428,0.509,0.872,1.014,1.388,1.438c1.114,0.919,1.611,0.02,2.5-0.215
		c1.812-0.478,3.641-2.884,3.494-4.842C21.019,15.304,19.404,16.239,18.854,16.313z M16.617,20.445
		c-1.117-0.039-2.684-1.41-1.609-2.539c0.613-0.645,1.941-0.566,2.758-0.574C20.691,17.316,18.66,20.512,16.617,20.445z"/>
	<path fill="currentColor" d="M11.286,18.365c-0.031-0.044-0.062-0.089-0.08-0.149c-0.747-2.5-4.989-1.598-6.865-1.779
		c-1.843-0.179-0.154,2.754,0.346,3.247c0.84,0.83,2.268,1.916,3.501,2.024c0.109,0.01,0.192,0.053,0.264,0.107
		c0.008,0.002,0.016,0.004,0.024,0.005c1.111-0.312,3.539-1.923,2.864-3.276C11.309,18.483,11.292,18.424,11.286,18.365z
		 M7.992,20.445c-2.094,0.105-4.23-3.02-1.34-3.109c0.863-0.031,2.133-0.063,2.813,0.563C10.613,18.957,9.125,20.391,7.992,20.445z"
		/>
	<path fill="currentColor" d="M22.34,14.148c-1.105-0.656-3.859,0.211-5.109,0.344c-3.238,0.344-7.051,0.309-10.297,0
		c-1.297-0.125-3.715-0.91-4.922-0.398c-0.984,0.422-0.777,1.707-0.609,2.531c0.449,2.242,1.035,4.578,3.051,5.906
		c1.332,0.879,3.754,1.957,5.34,1.164c0.82-0.41,1.453-1.684,2.48-1.59c0.949,0.086,1.488,1.188,2.289,1.59
		c1.176,0.59,2.895,0.066,4.004-0.438c2.699-1.23,3.512-3.32,4.129-6.059C22.91,16.262,23.395,14.77,22.34,14.148z M22.042,16.667
		c-0.15,1.188-0.738,2.973-1.651,3.822c-1.137,1.058-2.279,1.531-3.687,2.138c-1.646,0.711-3.579-1.32-4.369-3.01
		c-0.438,1.539-2.348,2.9-3.702,3.198c-0.1,0.022-0.187,0.009-0.267-0.018c-0.089-0.012-0.159-0.05-0.219-0.097
		c-1.65-0.162-3.642-1.432-4.574-2.795C2.941,18.98,1.761,16.68,2.801,15.64c0.59-0.59,1.478-0.168,2.182-0.141
		c1.352,0.052,2.683-0.092,4.031,0.072c1.169,0.143,2.53,0.971,3.035,2.089c0.497-1.761,3.406-2.111,4.986-2.33
		c0.148-0.021,0.275,0.021,0.377,0.092c0.837-0.087,1.634-0.183,2.479-0.462c0.506-0.168,1.048-0.084,1.522,0.115
		C22.074,15.353,22.12,16.05,22.042,16.667z"/>
	<path fill="currentColor" d="M19.52,8.98c-0.184-2.27-0.91-4.684-1.504-6.883c-0.223-0.836-0.586-1.813-1.547-2c-1.559-0.305-3.078,1.348-4.77,1.219
		c-1.5-0.117-3.508-2.031-4.883-0.813C5.051,2.066,5.441,6.105,4.594,8.207C4.133,9.348-0.785,9.621,0.203,11.25
		c0.586,0.969,2.473,1.199,3.488,1.398c3.395,0.668,6.855,0.535,10.297,0.535c2.895,0,6.031-0.133,8.773-1.164
		C26.313,10.688,20.867,9.09,19.52,8.98z M20.688,11.625c-0.22,0.012-0.443,0.013-0.664,0.023c-0.074,0.017-0.143,0.031-0.201,0.042
		c-0.412,0.077-0.822,0.055-1.233,0.009c-0.253,0.007-0.505,0.021-0.759,0.027c-0.853,0.212-2.045,0.182-2.443,0.18
		c-2.5-0.007-5.015-0.032-7.512-0.166c-0.229-0.012-0.478-0.009-0.732-0.004c-0.858,0.117-1.719,0.254-2.562,0.203
		c-0.393-0.024-0.822-0.063-1.185-0.233c-0.509-0.038-1.077-0.117-1.417-0.477c-0.258-0.274-0.148-0.729,0.221-0.835
		c0.363-0.105,0.738-0.157,1.114-0.202C3.96,9.763,4.79,9.731,5.534,9.615C6.43,8.676,7.321,7.128,7.487,6.292
		C7.729,5.074,7.44,3.96,7.706,2.773c0.317-1.422,2.011-0.441,2.609-0.018c0.011,0.008,0.016,0.019,0.026,0.027
		c0.009,0.003,0.018,0.005,0.027,0.008c1.392,0.419,2.29-0.353,3.437-0.742c0.501-0.17,0.944-0.051,1.297,0.222
		c0.68-0.005,1.187,0.622,1.334,1.636c0.282,1.938,0.07,5.185,2.283,5.966c0.388,0.083,0.778,0.156,1.181,0.199
		c0.425,0.045,1.102,0.063,1.243,0.577c0.029,0.106,0.022,0.199,0,0.286C21.231,11.221,21.081,11.604,20.688,11.625z"/>
</g>
</svg>
