<?xml version="1.0" encoding="utf-8"?>
<!-- Generator: Adobe Illustrator 16.0.0, SVG Export Plug-In . SVG Version: 6.00 Build 0)  -->
<!DOCTYPE svg PUBLIC "-//W3C//DTD SVG 1.0//EN" "http://www.w3.org/TR/2001/REC-SVG-20010904/DTD/svg10.dtd">
<svg version="1.0" id="Layer_1" xmlns="http://www.w3.org/2000/svg" xmlns:xlink="http://www.w3.org/1999/xlink" x="0px" y="0px"
	 width="24px" height="24px" viewBox="0 0 24 24" enable-background="new 0 0 24 24" xml:space="preserve">
<g id="surface1">
	<path fill="currentColor" d="M7.979,16.38c-1.115-0.141-5.356-1.135-4.168,1.755c0.494,1.198,1.725,2.712,2.92,3.309
		c1.326,0.662,2.283,0.154,3.146-0.626c-0.1-0.174-0.112-0.397,0.061-0.587c0.624-0.684,0.998-2.031,0.505-2.832
		C9.876,16.479,8.922,16.499,7.979,16.38z M7.992,20.445c-2.094,0.105-4.23-3.02-1.34-3.109c0.863-0.031,2.133-0.063,2.813,0.563
		C10.613,18.957,9.125,20.391,7.992,20.445z"/>
	<path fill="currentColor" d="M22.34,14.148c-1.105-0.656-3.859,0.211-5.109,0.344c-3.238,0.344-7.051,0.309-10.297,0
		c-1.297-0.125-3.715-0.91-4.922-0.398c-0.984,0.422-0.777,1.707-0.609,2.531c0.449,2.242,1.035,4.578,3.051,5.906
		c1.332,0.879,3.754,1.957,5.34,1.164c0.82-0.41,1.453-1.684,2.48-1.59c0.949,0.086,1.488,1.188,2.289,1.59
		c1.176,0.59,2.895,0.066,4.004-0.438c2.699-1.23,3.512-3.32,4.129-6.059C22.91,16.262,23.395,14.77,22.34,14.148z M21.544,17.836
		c-0.413,1.215-0.606,2.633-1.733,3.411c-0.931,0.643-2.02,1.468-3.212,1.46c-1.521-0.01-2.34-0.342-3.438-1.382
		c-0.36-0.341-0.843-0.774-1.108-1.275c-1.836,1.619-3.751,4.171-6.3,1.902c-1.309-1.165-3.228-2.836-3.113-4.741
		c-0.407-0.504-0.757-1.395-0.221-1.815c0.74-0.581,1.768-0.509,2.645-0.396c0.046,0.006,0.083,0.025,0.123,0.041
		c0.282-0.022,0.549-0.021,0.769,0c1.385,0.133,3.048,0.234,4.333,0.79c0.842,0.364,1.267,1.045,1.391,1.818
		c0.068,0.022,0.135,0.06,0.197,0.122c0.139,0.14,0.236,0.312,0.298,0.498c0.856-1.971,3.255-2.837,5.349-2.957
		c0.069-0.004,0.127,0.009,0.182,0.026c0.01,0,0.017-0.005,0.026-0.005c0.983,0.019,2.647-0.799,3.499,0.084
		C21.955,16.171,21.868,16.882,21.544,17.836z"/>
	<path fill="currentColor" d="M17.729,16.334c-0.06-0.001-0.108-0.019-0.157-0.035c-0.019,0.003-0.031,0.013-0.051,0.014
		c-1.502,0.087-4.324,0.927-4.612,2.654c-0.136,0.819,0.732,1.454,1.236,1.93c0.909,0.857,2.408,1.127,3.551,0.495
		c0.736-0.407,2.022-1.057,2.256-1.885c0.185-0.656,0.417-1.29,0.628-1.938C21.283,15.406,18.825,16.354,17.729,16.334z
		 M16.617,20.445c-1.117-0.039-2.684-1.41-1.609-2.539c0.613-0.645,1.941-0.566,2.758-0.574
		C20.691,17.316,18.66,20.512,16.617,20.445z"/>
	<path fill="currentColor" d="M19.52,8.98c-0.184-2.27-0.91-4.684-1.504-6.883c-0.223-0.836-0.586-1.813-1.547-2c-1.559-0.305-3.078,1.348-4.77,1.219
		c-1.5-0.117-3.508-2.031-4.883-0.813C5.051,2.066,5.441,6.105,4.594,8.207C4.133,9.348-0.785,9.621,0.203,11.25
		c0.586,0.969,2.473,1.199,3.488,1.398c3.395,0.668,6.855,0.535,10.297,0.535c2.895,0,6.031-0.133,8.773-1.164
		C26.313,10.688,20.867,9.09,19.52,8.98z M19.227,11.138c-1.002,0.41-2.12,0.373-3.185,0.322c-1.451-0.068-2.903-0.041-4.354-0.054
		c-2.538-0.023-5.093,0.079-7.625,0c-0.343-0.011-0.67-0.431-0.432-0.752c0.136-0.183,0.284-0.48,0.534-0.547
		C5,9.885,5.775,9.523,6.317,8.924c0.152-0.259,0.314-0.513,0.489-0.765c0.089-0.203,0.166-0.417,0.213-0.657
		c0.337-1.723,0.236-3.454,0.935-5.093c0.333-0.78,1.272-0.714,1.898-0.503c1.12,0.378,1.328,0.958,2.609,0.986
		c1.004,0.022,1.888-0.224,2.756-0.729c0.131-0.076,0.256-0.083,0.368-0.051c0.22-0.205,0.574-0.242,0.722,0.105
		c1.161,2.725-0.841,6.72,2.92,7.958C19.728,10.339,19.675,10.955,19.227,11.138z"/>
</g>
</svg>
