<?xml version="1.0" encoding="utf-8"?>
<!-- Generator: Adobe Illustrator 16.0.0, SVG Export Plug-In . SVG Version: 6.00 Build 0)  -->
<!DOCTYPE svg PUBLIC "-//W3C//DTD SVG 1.1//EN" "http://www.w3.org/Graphics/SVG/1.1/DTD/svg11.dtd">
<svg version="1.1" id="Layer_1" xmlns="http://www.w3.org/2000/svg" xmlns:xlink="http://www.w3.org/1999/xlink" x="0px" y="0px"
	 width="132px" height="132px" viewBox="0 0 132 132" enable-background="new 0 0 132 132" xml:space="preserve">
<path fill="#FFFFFF" d="M108.433,90.773c-1.771-2.508-8.646-0.498-10.965,0.052c-3.351,0.794-6.633,1.728-10.049,2.189
	c-1.817,0.246-7.183,0.482-10.714,1.633c0.311,0.919,0.368,1.935,0.116,2.932c-0.643,2.544-0.765,5.063-1.176,7.733
	c0.493,0.727,1.024,1.438,1.651,2.103c3.85,4.086,8.314,7.122,14.124,6.264c1.875-0.277,5.951,0.264,7.444-0.859
	c1.941-1.461,3.24-3.726,4.447-5.785C105.515,103.277,111.562,95.205,108.433,90.773z"/>
<path fill="#FFFFFF" d="M61.464,99.035c-0.07-0.088-0.12-0.179-0.184-0.268c-0.508-0.13-1.029-0.356-1.554-0.7
	c-9.437-6.184-22.932-5.643-34.524-5.081c-0.041,0.281-0.08,0.563-0.131,0.843c-0.081,0.443-0.261,0.851-0.488,1.232
	c0.195,2.672,0.626,5.277,1.908,7.481c2.326,4,5.515,7.725,10.088,9.136c4.615,1.424,12.216,4.279,16.211,0.239
	c2.857-2.889,6.567-4.456,9.424-7.203c0.519-0.499,1.068-0.847,1.628-1.077C63.191,101.94,62.488,100.307,61.464,99.035z"/>
<path fill="#FFFFFF" d="M0,0v132h132V0H0z M17.079,54.929c5.9,1.431,13.138-3.695,14.696-9.19c2.15-7.577,0.103-15.551,2.403-23.068
	c1.293-4.225,2.694-8.731,5.83-11.979c2.412-2.497,5.185-2.604,7.622-1.457c2.215,0.864,4.156,2.025,6.109,3.231
	c0.875,0.075,1.743,0.203,2.59,0.461c2.576,0.785,4.925,1.959,7.344,3.079c3.215-0.718,6.371-1.942,9.498-2.829
	c4.796-1.36,12.596-6.425,16.97-1.257c4.712,5.566,2.829,12.737,5.135,19.185c1.229,3.435,3.325,6.077,3.854,9.781
	c0.378,2.646-0.302,6.743,1.906,8.577c0.474,0.394,0.833,0.814,1.099,1.248c0.441,0.277,0.803,0.633,1.111,1.027
	c0.12,0.044,0.238,0.092,0.357,0.141c0.358-0.078,0.734-0.131,1.147-0.131c2.109,0,3.515,1.076,4.243,2.517
	c0.68,0.212,1.328,0.493,1.951,0.86c0.439-0.038,0.899-0.029,1.385,0.052c0.5,0.083,1,0.167,1.5,0.25
	c4.523,0.754,4.548,7.053,1.194,9.139c-6.274,3.903-12.619,3.669-19.731,3.342c-7.892-0.363-15.753,1.073-23.685,0.818
	c-0.57-0.019-1.141-0.044-1.711-0.067c-0.593,0.254-1.277,0.409-2.063,0.424c-4.771,0.086-9.239,0.934-13.996,0.071
	c-0.649-0.118-1.199-0.329-1.665-0.604c-3.276-0.009-6.564,0.022-9.923,0.115c-4.497,0.124-9.06,0.046-13.537-0.404
	c-1.526-0.153-3.205-0.636-4.886-1.008c-3.28,0.057-5.971,0.817-9.1-0.771c-1.234-0.627-1.97-1.677-2.274-2.85
	C8.893,60.776,11.611,53.603,17.079,54.929z M112.567,111.023c-3.787,6.463-7.938,12.009-15.974,12.195
	c-4.11,0.096-8.061,1.228-12.167,0.163c-3.583-0.929-6.742-2.569-9.662-4.833c-2.315-1.795-4.432-3.818-6.26-6.093
	c-2.134,1.686-4.872,2.697-6.719,4.579c-2.117,2.157-4.175,4.244-7.017,5.404c-6.563,2.68-14.367,1.086-20.848-1.118
	c-6.393-2.174-11.895-6.56-15.314-12.44c-3.345-5.754-3.25-11.149-3.929-17.291c-0.005-0.013-0.014-0.035-0.019-0.047
	c-0.124-0.274-0.249-0.548-0.378-0.819c-0.518-1.074-1.063-2.135-1.599-3.2c-1.224-2.435-0.666-5.4,1.794-6.841
	c1.68-0.983,3.548-0.832,5.045,0.083c1.779,0.16,3.566,0.223,5.307,0.663c1.312,0.332,2.457,0.57,3.754,0.655
	c0.897,0.059,1.736,0.328,2.472,0.743c11.751-0.272,24.223,0.384,33.718,6.605c0.327,0.214,0.614,0.448,0.866,0.697
	c4.422-4.581,13.589-6.038,19.6-6.825c10.369-1.358,26.404-8.99,32.544,3.929C121.62,95.307,116.617,104.113,112.567,111.023z"/>
<path d="M108.433,90.773c-1.771-2.508-8.646-0.498-10.965,0.052c-3.351,0.794-6.633,1.728-10.049,2.189
	c-1.817,0.246-7.183,0.482-10.714,1.633c0.311,0.919,0.368,1.935,0.116,2.932c-0.643,2.544-0.765,5.063-1.176,7.733
	c0.493,0.727,1.024,1.438,1.651,2.103c3.85,4.086,8.314,7.122,14.124,6.264c1.875-0.277,5.951,0.264,7.444-0.859
	c1.941-1.461,3.24-3.726,4.447-5.785C105.515,103.277,111.562,95.205,108.433,90.773z"/>
<path d="M61.464,99.035c-0.07-0.088-0.12-0.179-0.184-0.268c-0.508-0.13-1.029-0.356-1.554-0.7
	c-9.437-6.184-22.932-5.643-34.524-5.081c-0.041,0.281-0.08,0.563-0.131,0.843c-0.081,0.443-0.261,0.851-0.488,1.232
	c0.195,2.672,0.626,5.277,1.908,7.481c2.326,4,5.515,7.725,10.088,9.136c4.615,1.424,12.216,4.279,16.211,0.239
	c2.857-2.889,6.567-4.456,9.424-7.203c0.519-0.499,1.068-0.847,1.628-1.077C63.191,101.94,62.488,100.307,61.464,99.035z"/>
<path d="M119.785,78.028c-5.803-3.431-20.228,1.106-26.785,1.806c-16.972,1.811-36.969,1.617-54-0.004
	c-6.786-0.646-19.466-4.756-25.786-2.073c-5.17,2.194-4.083,8.919-3.21,13.243c2.368,11.729,5.429,23.941,15.996,30.893
	c6.98,4.59,19.686,10.233,28,6.08c4.298-2.147,7.624-8.802,13-8.311c4.977,0.453,7.803,6.213,12,8.311
	c6.178,3.086,15.182,0.356,21-2.285c14.146-6.424,18.409-17.36,21.65-31.688C122.762,89.089,125.313,81.297,119.785,78.028z
	 M112.567,111.023c-3.787,6.463-7.938,12.009-15.974,12.195c-4.11,0.096-8.061,1.228-12.167,0.163
	c-3.583-0.929-6.742-2.569-9.662-4.833c-2.315-1.795-4.432-3.818-6.26-6.093c-2.134,1.686-4.872,2.697-6.719,4.579
	c-2.117,2.157-4.175,4.244-7.017,5.404c-6.563,2.68-14.367,1.086-20.848-1.118c-6.393-2.174-11.895-6.56-15.314-12.44
	c-3.345-5.754-3.25-11.149-3.929-17.291c-0.005-0.013-0.014-0.035-0.019-0.047c-0.124-0.274-0.249-0.548-0.378-0.819
	c-0.518-1.074-1.063-2.135-1.599-3.2c-1.224-2.435-0.666-5.4,1.794-6.841c1.68-0.983,3.548-0.832,5.045,0.083
	c1.779,0.16,3.566,0.223,5.307,0.663c1.312,0.332,2.457,0.57,3.754,0.655c0.897,0.059,1.736,0.328,2.472,0.743
	c11.751-0.272,24.223,0.384,33.718,6.605c0.327,0.214,0.614,0.448,0.866,0.697c4.422-4.581,13.589-6.038,19.6-6.825
	c10.369-1.358,26.404-8.99,32.544,3.929C121.62,95.307,116.617,104.113,112.567,111.023z"/>
<path d="M105,51c-0.969-11.866-4.787-24.5-7.885-36c-1.179-4.374-3.067-9.492-8.119-10.473C80.832,2.942,72.861,11.589,64,10.906
	c-7.874-0.607-18.39-10.629-25.606-4.253c-9.256,8.178-7.218,29.302-11.657,40.292C24.321,52.927-1.45,54.356,3.712,62.871
	C6.791,67.949,16.692,69.154,22,70.195C39.803,73.688,57.943,73,76,73c15.174,0,31.616-0.697,45.999-6.094
	C140.604,59.926,112.064,51.577,105,51z M115.023,64.567c-6.274,3.903-12.619,3.669-19.731,3.342
	c-7.892-0.363-15.753,1.073-23.685,0.818c-0.57-0.019-1.141-0.044-1.711-0.067c-0.593,0.254-1.277,0.409-2.063,0.424
	c-4.771,0.086-9.239,0.934-13.996,0.071c-0.649-0.118-1.199-0.329-1.665-0.604c-3.276-0.009-6.564,0.022-9.923,0.115
	c-4.497,0.124-9.06,0.046-13.537-0.404c-1.526-0.153-3.205-0.636-4.886-1.008c-3.28,0.057-5.971,0.817-9.1-0.771
	c-1.234-0.627-1.97-1.677-2.274-2.85c-3.56-2.858-0.841-10.032,4.627-8.706c5.9,1.431,13.138-3.695,14.696-9.19
	c2.15-7.577,0.103-15.551,2.403-23.068c1.293-4.225,2.694-8.731,5.83-11.979c2.412-2.497,5.185-2.604,7.622-1.457
	c2.215,0.864,4.156,2.025,6.109,3.231c0.875,0.075,1.743,0.203,2.59,0.461c2.576,0.785,4.925,1.959,7.344,3.079
	c3.215-0.718,6.371-1.942,9.498-2.829c4.796-1.36,12.596-6.425,16.97-1.257c4.712,5.566,2.829,12.737,5.135,19.185
	c1.229,3.435,3.325,6.077,3.854,9.781c0.378,2.646-0.302,6.743,1.906,8.577c0.474,0.394,0.833,0.814,1.099,1.248
	c0.441,0.277,0.803,0.633,1.111,1.027c0.12,0.044,0.238,0.092,0.357,0.141c0.358-0.078,0.734-0.131,1.147-0.131
	c2.109,0,3.515,1.076,4.243,2.517c0.68,0.212,1.328,0.493,1.951,0.86c0.439-0.038,0.899-0.029,1.385,0.052
	c0.5,0.083,1,0.167,1.5,0.25C118.353,56.183,118.377,62.481,115.023,64.567z"/>
<path fill="#FFFFFF" d="M37,94.715c-15.079,0.484-3.917,16.786,7,16.237c5.917-0.298,13.67-7.774,7.681-13.3
	C48.146,94.392,41.512,94.569,37,94.715 M95,94.711c-4.261,0.027-11.19-0.371-14.396,2.992c-5.609,5.884,2.568,13.046,8.396,13.238
	C99.676,111.291,110.27,94.611,95,94.711z"/>
</svg>
