<?xml version="1.0" standalone="yes"?>
<svg xmlns="http://www.w3.org/2000/svg" width="132" height="132">
<path style="fill:#ffffff; stroke:none;" d="M0 0L0 132L132 132L132 0L0 0z"/>
<path style="fill:#000000; stroke:none;" d="M105 51C104.031 39.1342 100.213 26.5 97.115 15C95.9365 10.6262 94.048 5.508 88.9961 4.52701C80.832 2.94167 72.861 11.5896 64 10.9059C56.1259 10.2983 45.61 0.27681 38.3935 6.65278C29.1376 14.8306 31.1755 35.9552 26.7369 46.9452C24.3211 52.9267 -1.44974 54.3558 3.71219 62.8704C6.79078 67.9485 16.6919 69.1546 22 70.196C39.8026 73.6885 57.9432 73 76 73C91.1735 73 107.616 72.3025 121.999 66.9059C140.603 59.9259 112.065 51.5771 105 51M13.2137 77.7569C8.04397 79.9513 9.13075 86.6756 10.0039 91C12.3718 102.728 15.4326 114.942 26 121.892C32.98 126.483 45.6857 132.126 54 127.972C58.2979 125.825 61.6239 119.171 67 119.662C71.9769 120.116 74.8025 125.875 79 127.972C85.1773 131.058 94.1821 128.329 100 125.688C114.147 119.264 118.409 108.327 121.65 94C122.762 89.0889 125.313 81.2972 119.785 78.0285C113.983 74.5976 99.5575 79.1346 93 79.8341C76.0283 81.6445 56.0307 81.451 39 79.8302C32.2141 79.1845 19.5344 75.0741 13.2137 77.7569z"/>
<path style="fill:#ffffff; stroke:none;" d="M37 94.7145C21.9207 95.1993 33.0824 111.501 44 110.952C49.9166 110.655 57.6698 103.178 51.6813 97.6528C48.1467 94.3918 41.5117 94.5694 37 94.7145M95 94.7106C90.7394 94.7384 83.8095 94.3396 80.6034 97.7029C74.9946 103.587 83.172 110.749 89 110.941C99.6762 111.291 110.269 94.6113 95 94.7106z"/>
</svg>
